<svg viewBox="0 0 112 47"><g><path fill="#ffffff" d="M11.029 28.027c-0.979 0-1.841 0-2.977-0.041v9.957H1V8.934C4.212 8.7 6.994 8.582 10.324 8.582c7.562 0 13.673 1.445 13.673 9.45v0.39C23.998 26.543 17.886 28.027 11.029 28.027zM16.906 18.031c-0.039-3.358-2.037-3.983-6.072-3.983 -0.94 0-1.959 0.039-2.782 0.039v8.435h2.782c4.074 0 6.072-0.781 6.072-4.1V18.031z"></path><path fill="#ffffff" d="M32.734 21.818v16.125h-6.817V15.688h6.347v1.834c2.194-1.991 4.937-2.42 7.366-2.42v5.701C37.161 20.804 34.498 21.233 32.734 21.818z"></path><path fill="#ffffff" d="M41.04 12.643V7.528h7.091v5.115H41.04zM41.158 37.943V15.688h6.817v22.255H41.158z"></path><path fill="#ffffff" d="M77.162 37.943V23.458c0-2.109-0.039-3.28-2.351-3.28 -1.058 0-2.508 0.43-3.761 1.093 0.117 0.704 0.117 1.484 0.117 2.187v14.485H64.35V23.458c0-2.109-0.079-3.28-2.194-3.28 -1.292 0-2.742 0.586-3.839 1.132v16.633H51.5V15.688h6.425v1.757c1.841-1.445 4.271-2.343 6.738-2.343 2.743 0 4.31 0.898 5.29 2.42 2.507-1.718 4.976-2.42 7.052-2.42 6.151 0 6.974 3.865 6.974 8.2v14.642H77.162z"></path><path fill="#ffffff" d="M93.146 28.65v0.312c0 2.928 0.393 4.529 5.211 4.529 2.271 0 4.623-0.156 8.385-0.43v4.49c-1.725 0.43-4.858 0.977-8.697 0.977 -8.188 0-11.636-2.852-11.636-11.012v-1.209c0-7.771 3.722-11.207 10.774-11.207 8.383 0 10.655 5.31 10.655 11.714v1.834H93.146zM101.141 24.629c0-2.46-0.511-4.685-3.998-4.685 -3.369 0-3.957 2.265-3.957 4.685v0.312h7.955V24.629z"></path></g></svg>