<svg viewBox="112 0 47 47" aria-labelledby="title">
  <g>
    <rect fill="transparent" x="116.925" y="3.235" width="38.075" height="39"></rect>
    <path fill="#54e50d" d="M112.85 1v45H158V1H112.85zM129.866 37.943h-6.927V15.334h6.927V37.943zM130.025 12.24h-7.207V7.043h7.207V12.24zM149.527 20.252h-5.096v11.305c0 1.865 0.121 2.262 1.873 2.262 1.073 0 2.627-0.079 3.184-0.158v4.244c-0.6 0.16-2.748 0.635-5.057 0.635 -4.816 0-6.923-1.904-6.923-6.9V20.253l-3.94-0.358v-4.561h3.94l1.325-5.712h5.598v5.712h5.096V20.252z"></path>
  </g>
  <g>
    <rect fill="transparent" x="116.925" y="3.235" width="38.075" height="39"></rect>
    <path fill="#54e50d" d="M112.85 1v45H158V1H112.85zM129.866 37.943h-6.927V15.334h6.927V37.943zM130.025 12.24h-7.207V7.043h7.207V12.24zM149.527 20.252h-5.096v11.305c0 1.865 0.121 2.262 1.873 2.262 1.073 0 2.627-0.079 3.184-0.158v4.244c-0.6 0.16-2.748 0.635-5.057 0.635 -4.816 0-6.923-1.904-6.923-6.9V20.253l-3.94-0.358v-4.561h3.94l1.325-5.712h5.598v5.712h5.096V20.252z"></path>
  </g>
</svg>